<svg width="16" height="16" xmlns="http://www.w3.org/2000/svg"><path d="M9.377 5.667a.667.667 0 0 1 .078 1.329L9.377 7h-2.71a2.667 2.667 0 0 0-.133 5.33l.133.003H12a2.667 2.667 0 0 0 2.223-4.14.667.667 0 1 1 1.11-.738 4 4 0 0 1-3.183 6.21l-.15.002H6.667a4 4 0 0 1-.15-7.998l.15-.002h2.71Zm-.044-3.334a4 4 0 0 1 .15 7.998l-.15.002h-2.71a.667.667 0 0 1-.078-1.329L6.623 9h2.71a2.667 2.667 0 0 0 .133-5.33l-.133-.003H4a2.667 2.667 0 0 0-2.223 4.14.667.667 0 1 1-1.11.738 4 4 0 0 1 3.183-6.21L4 2.334h5.333Z" fill="#646A73"/></svg>