<svg width="16" height="16" xmlns="http://www.w3.org/2000/svg"><path d="M14.667 0C15.403 0 16 .597 16 1.333v10c0 .737-.597 1.334-1.333 1.334l-2-.001v2c0 .737-.597 1.334-1.334 1.334h-10A1.333 1.333 0 0 1 0 14.667v-10c0-.737.597-1.334 1.333-1.334h2v-2C3.333.597 3.93 0 4.667 0h10Zm-3.334 4.667h-10v10h10v-10ZM10.22 7.039c.24.24.26.619.056.88l-.056.063-3.764 3.764a1 1 0 0 1-1.338.069l-.076-.069L2.535 9.24a.667.667 0 0 1 .88-.998l.062.055 2.272 2.271L9.277 7.04c.26-.26.683-.26.943 0Zm4.447-5.706h-10v2h6.666c.737 0 1.334.597 1.334 1.334v6.666h2v-10Z" fill="#646A73"/></svg>