<svg width="16" height="16" xmlns="http://www.w3.org/2000/svg"><path d="M14.667 12.667a.667.667 0 1 1 0 1.333h-4a.667.667 0 1 1 0-1.333h4Zm-13.089-10a1 1 0 0 1 .898.56l4.182 8.544V3.338a.671.671 0 0 1 1.342 0v8.995a1 1 0 0 1-1 1h-.435a1 1 0 0 1-.892-.548L1.341 4.227v8.435a.671.671 0 0 1-.57.664l-.1.007a.67.67 0 0 1-.671-.67V3.666a1 1 0 0 1 1-1h.578Zm11.755 0A2.667 2.667 0 0 1 16 5.333v3.334a2.667 2.667 0 0 1-2.667 2.666H12a2.667 2.667 0 0 1-2.667-2.666V5.333A2.667 2.667 0 0 1 12 2.667h1.333Zm0 1.333H12c-.703 0-1.279.544-1.33 1.234l-.003.1v3.333c0 .703.544 1.278 1.233 1.33L12 10h1.333c.703 0 1.28-.544 1.33-1.234l.004-.1V5.334c0-.703-.544-1.278-1.234-1.33l-.1-.003Z" fill="#646A73"/></svg>