<svg width="16" height="16" xmlns="http://www.w3.org/2000/svg"><path d="M10.667.667c.368 0 .666.298.666.666V2H14c.736 0 1.333.597 1.333 1.333V14c0 .736-.597 1.333-1.333 1.333H2A1.333 1.333 0 0 1 .667 14V3.333C.667 2.597 1.264 2 2 2h2.666v-.667a.667.667 0 1 1 1.334 0V2h4v-.667c0-.368.298-.666.667-.666Zm3.333 6H2V14h12V6.667ZM11.775 9.77a.667.667 0 1 1-.883 1c-.44-.39-.907-.514-1.468-.392-.27.059-.473.158-.792.378l-.272.193c-.64.456-1.093.654-1.78.654-.956 0-1.756-.279-2.366-.844a.667.667 0 1 1 .906-.978c.349.323.824.489 1.46.489.318 0 .53-.08.892-.328l.258-.182c.532-.38.887-.571 1.411-.685.978-.212 1.878.026 2.634.695ZM14 3.333H2v2h12v-2Z" fill="#646A73"/></svg>