<svg width="16" height="16" xmlns="http://www.w3.org/2000/svg"><g fill="#646A73" fill-rule="evenodd"><path d="M10.667.667c.368 0 .666.298.666.666V2H14c.736 0 1.333.597 1.333 1.333V14c0 .736-.597 1.333-1.333 1.333H2A1.333 1.333 0 0 1 .667 14V3.333C.667 2.597 1.264 2 2 2h2.666v-.667a.667.667 0 1 1 1.334 0V2h4v-.667c0-.368.298-.666.667-.666Zm3.333 6H2V14h12V6.667Zm0-3.334H2v2h12v-2Z" fill-rule="nonzero"/><path d="M4.267 10.8a.933.933 0 1 1 0 1.867.933.933 0 0 1 0-1.867ZM8 10.8a.933.933 0 1 1 0 1.867.933.933 0 0 1 0-1.867Zm3.733 0a.933.933 0 1 1 0 1.867.933.933 0 0 1 0-1.867ZM4.267 8a.933.933 0 1 1 0 1.867.933.933 0 0 1 0-1.867ZM8 8a.933.933 0 1 1 0 1.867A.933.933 0 0 1 8 8Zm3.733 0a.933.933 0 1 1 0 1.867.933.933 0 0 1 0-1.867Z"/></g></svg>