<svg width="16" height="16" xmlns="http://www.w3.org/2000/svg"><path d="M2.667 15.333a2 2 0 1 1 0-4h10.666a2 2 0 1 1 0 4H2.667Zm1.999-2.666h-2a.667.667 0 0 0-.077 1.329l.078.004h1.999v-1.333Zm8.667 0H6V14h7.333a.667.667 0 0 0 .078-1.329l-.078-.004Zm0-6.667a2 2 0 1 1 0 4H2.667a2 2 0 1 1 0-4h10.666ZM4.666 7.333h-2a.667.667 0 0 0-.077 1.33l.078.004 1.999-.001V7.333Zm8.667 0H6v1.333h7.333a.667.667 0 0 0 .078-1.328l-.078-.005Zm0-6.666a2 2 0 0 1 0 4H2.667a2 2 0 1 1 0-4h10.666ZM4.666 2h-2a.667.667 0 0 0-.077 1.329l.078.004h1.999V2Zm8.667 0H6v1.333h7.333a.667.667 0 0 0 .078-1.329L13.333 2Z" fill="#646A73"/></svg>