<svg width="16" height="16" xmlns="http://www.w3.org/2000/svg"><path d="M6 10c.736 0 1.333.597 1.333 1.333V14c0 .736-.597 1.333-1.333 1.333H2A1.333 1.333 0 0 1 .667 14v-2.667C.667 10.597 1.264 10 2 10h4Zm8-2.667c.736 0 1.333.597 1.333 1.334V14c0 .736-.597 1.333-1.333 1.333h-4A1.333 1.333 0 0 1 8.667 14V8.667c0-.737.597-1.334 1.333-1.334h4Zm-8 4H2V14h4v-2.667Zm8-2.666h-4V14h4V8.667Zm-8-8c.736 0 1.333.597 1.333 1.333v5.333c0 .737-.597 1.334-1.333 1.334H2A1.333 1.333 0 0 1 .667 7.333V2C.667 1.264 1.264.667 2 .667h4ZM6 2H2v5.333h4V2Zm8-1.333c.736 0 1.333.597 1.333 1.333v2.667C15.333 5.403 14.736 6 14 6h-4a1.333 1.333 0 0 1-1.333-1.333V2c0-.736.597-1.333 1.333-1.333h4ZM14 2h-4v2.667h4V2Z" fill="#646A73"/></svg>