<svg width="16" height="16" xmlns="http://www.w3.org/2000/svg"><path d="M8 0c1.864 0 3.728.774 5.072 2.322 2.28 2.625 2.056 6.588-.292 9.122l-.18.187-4.187 4.198a.58.58 0 0 1-.339.166L8 16a.581.581 0 0 1-.34-.11l-.073-.061L3.4 11.63C.884 9.11.592 5.012 2.928 2.321A6.687 6.687 0 0 1 7.785.004L8 0Zm0 3.333a3.333 3.333 0 0 1 .17 6.662L8 10a3.333 3.333 0 0 1-.17-6.662L8 3.333Zm0 1.334a2 2 0 1 0 0 4 2 2 0 0 0 0-4Zm0-3.334c-.461 0-.916.059-1.354.172l-.137.038A5.385 5.385 0 0 0 3.93 3.197c-1.8 2.074-1.66 5.281.278 7.355l.132.137L8 14.357l3.641-3.651.163-.17c1.93-2.081 2.055-5.275.264-7.339a5.389 5.389 0 0 0-2.307-1.568l-.188-.062-.191-.054A5.39 5.39 0 0 0 8 1.333Z" fill="#646A73"/></svg>