<svg width="16" height="16" xmlns="http://www.w3.org/2000/svg"><path d="m8.541.103.11.051 6.193 3.232c.418.217.69.634.728 1.098l.004.108v6.98c0 .48-.253.922-.66 1.166l-.097.053-6.194 3.068c-.342.17-.738.186-1.092.05l-.116-.05-6.193-3.068a1.361 1.361 0 0 1-.753-1.11l-.004-.11V4.593c0-.47.243-.905.637-1.153l.094-.053L7.392.154c.358-.187.78-.204 1.15-.05ZM1.827 5.3v6.272l5.514 2.73V7.956L1.827 5.3Zm12.388-.077L8.7 7.952v6.35l5.514-2.73V5.223ZM3.857 7.703l.072.035 1.695.947a.68.68 0 0 1-.592 1.223l-.072-.035-1.695-.947a.68.68 0 0 1 .592-1.223Zm4.164-6.342L2.627 4.174l5.39 2.598 5.325-2.636-5.32-2.775Z" fill="#646A73"/></svg>