<svg width="16" height="16" xmlns="http://www.w3.org/2000/svg"><path d="M15.526 11.249a.667.667 0 0 1-.212.86l-.067.04-6.522 3.438c-.349.184-.76.203-1.122.057l-.107-.05-6.721-3.441a.667.667 0 0 1 .536-1.218l.072.031 6.72 3.442 6.522-3.438a.667.667 0 0 1 .9.279Zm0-3.734a.667.667 0 0 1-.212.86l-.067.04-6.522 3.438c-.349.184-.76.203-1.122.057l-.107-.05L.775 8.42A.667.667 0 0 1 1.31 7.2l.072.032 6.72 3.442 6.522-3.438a.667.667 0 0 1 .9.279ZM7.334.356a2 2 0 0 1 1.57.009l6.26 2.709a1 1 0 0 1 .069 1.802L9.04 8.141a2 2 0 0 1-1.845.01L.811 4.882A1 1 0 0 1 .88 3.07Zm1.04 1.232a.667.667 0 0 0-.523-.003L2.056 4.022l5.748 2.943c.17.086.366.096.541.03l.074-.034 5.576-2.94Z" fill="#646A73"/></svg>