<svg width="16" height="16" xmlns="http://www.w3.org/2000/svg"><path d="M15.333 13.333a.667.667 0 0 1 0 1.334H.667a.667.667 0 0 1 0-1.334h14.666ZM5.076 1.25a1 1 0 0 1 .467.42l.048.096 3.703 8.467a.667.667 0 0 1-1.186.604l-.036-.07-1.501-3.433H2.778l-1.5 3.433a.667.667 0 0 1-.805.371L.4 11.11a.667.667 0 0 1-.371-.805l.027-.073 3.703-8.467a1 1 0 0 1 1.317-.516Zm10.257 8.084a.667.667 0 0 1 0 1.334h-4a.667.667 0 0 1 0-1.334h4Zm0-4a.667.667 0 0 1 0 1.334h-4a.667.667 0 1 1 0-1.334h4ZM4.675 2.997 3.36 5.999h2.626L4.675 2.997Zm10.658-1.664a.667.667 0 0 1 0 1.334h-4a.667.667 0 1 1 0-1.334h4Z" fill="#646A73" fill-rule="evenodd"/></svg>