<svg width="16" height="16" xmlns="http://www.w3.org/2000/svg"><g fill="#646A73" fill-rule="evenodd"><path d="M1.5 3.005H3v9.6H1.5v-8.17L0 5.465v-1.46l1.5-1Zm13.6 4.63c.9.52.9.84.9 2.19s-.08 1.54-.37 1.93a2 2 0 0 1-1.8.83 2 2 0 0 1-2.18-2v-.77h1.5v.71a.68.68 0 0 0 .75.7.72.72 0 0 0 .75-.77v-1.34c0-.7-.23-.9-1.2-.9v-1.16h-.15c.9 0 1.2-.13 1.2-.84v-1.21a.67.67 0 0 0-.75-.64.69.69 0 0 0-.75.64v.77h-1.5v-.77a2.16 2.16 0 0 1 2.25-2c.61 0 1.199.229 1.65.64.45.45.6.83.6 2s-.08 1.54-.9 1.99Z" fill-rule="nonzero"/><path d="M5.333 7.333h5.333v1.333H5.333z"/></g></svg>