<svg width="16" height="16" xmlns="http://www.w3.org/2000/svg"><path d="M1.5 3.005H3v9.6H1.5v-8.17L0 5.465v-1.46l1.5-1Zm8.25 2.38c.09.71-.1 1.428-.53 2L7 11.235h2.75v1.35H5.32v-1.29l2.75-4.62c.191-.376.27-.8.23-1.22 0-.45 0-1-.77-1a.68.68 0 0 0-.76.71v.77H5.25v-.87a2.14 2.14 0 0 1 2.29-2.06 2.1 2.1 0 0 1 2.21 2.38Zm5.35 2.25c.9.52.9.84.9 2.19s-.08 1.54-.37 1.93a2 2 0 0 1-1.8.83 2 2 0 0 1-2.18-2v-.77h1.5v.71a.68.68 0 0 0 .75.7.72.72 0 0 0 .75-.77v-1.34c0-.7-.23-.9-1.2-.9v-1.16h-.15c.9 0 1.2-.13 1.2-.84v-1.21a.67.67 0 0 0-.75-.64.69.69 0 0 0-.75.64v.77h-1.5v-.77a2.16 2.16 0 0 1 2.25-2c.61 0 1.199.229 1.65.64.45.45.6.83.6 2s-.08 1.54-.9 1.99Z" fill="#646A73"/></svg>