<svg width="16" height="16" xmlns="http://www.w3.org/2000/svg"><path d="M7.05.62a2 2 0 0 1 1.997 1.882l.003.118v1.486l6.283 1.925V14a.667.667 0 1 1 0 1.333h-1l-1 .002H.67v-.002H.667a.667.667 0 1 1 0-1.333V4.445A2 2 0 0 1 1.783 2.65l.115-.053L6.281.774a2 2 0 0 1 .77-.154Zm0 1.333a.667.667 0 0 0-.173.023l-.083.029L2.41 3.829a.667.667 0 0 0-.405.536L2 4.445v9.552L3.333 14H7.72L7.717 2.62a.667.667 0 0 0-.667-.667Zm2 3.635V14h4.945v-.586l.005-.078v-2.508l.002-.029L14 7.026 9.05 5.588Zm-2.917 5.08a.667.667 0 1 1 0 1.334H3.467a.667.667 0 1 1 0-1.334h2.666Zm6.667 0a.667.667 0 1 1 0 1.334h-2.667a.667.667 0 0 1 0-1.334H12.8ZM6.133 8.002a.667.667 0 1 1 0 1.333H3.467a.667.667 0 1 1 0-1.333h2.666Zm6.667 0a.667.667 0 0 1 0 1.333h-2.667a.667.667 0 0 1 0-1.333H12.8ZM6.133 5.335a.667.667 0 1 1 0 1.333H3.467a.667.667 0 1 1 0-1.333h2.666Z" fill="#646A73"/></svg>