<svg width="16" height="16" xmlns="http://www.w3.org/2000/svg"><path d="M13.333 1.333a2 2 0 0 1 2 2v9.334a2 2 0 0 1-2 2H2.667a2 2 0 0 1-2-2V3.333a2 2 0 0 1 2-2Zm-1.1 7.59-3.018 2.72-.02.017c-.545.44-1.33.38-1.804-.117l-.072-.083-1.2-1.485-3.95 3.135c.122.137.3.223.498.223h10.666a.667.667 0 0 0 .667-.666v-1.935l-1.767-1.808Zm1.1-6.256H2.667A.667.667 0 0 0 2 3.333v8.21L5.29 8.93a1.333 1.333 0 0 1 1.794.125l.072.082 1.2 1.486 2.984-2.69a1.333 1.333 0 0 1 1.765-.018l.081.077.814.833V3.333a.667.667 0 0 0-.568-.66l-.099-.006ZM5.333 4a2 2 0 1 1 0 4 2 2 0 0 1 0-4Zm0 1.333a.667.667 0 1 0 0 1.334.667.667 0 0 0 0-1.334Z" fill="#646A73"/></svg>