<svg width="16" height="16" xmlns="http://www.w3.org/2000/svg"><g fill="none" fill-rule="evenodd"><path d="M13.333.667a2 2 0 0 1 1.997 1.882l.003.118v10.666a2 2 0 0 1-1.882 1.997l-.118.003h-10a2 2 0 0 1-1.996-1.882l-.004-.118v-2H.667a.667.667 0 1 1 0-1.333h.666V6H.667a.667.667 0 1 1 0-1.333l.666-.001v-2A2 2 0 0 1 3.216.67l.117-.003h10Zm0 1.333h-10a.667.667 0 0 0-.662.589l-.004.078-.001 1.999h.667a.667.667 0 1 1 0 1.334h-.667v4h.667a.667.667 0 1 1 0 1.333h-.667v2c0 .342.258.624.59.663l.077.004h10a.667.667 0 0 0 .663-.589l.004-.078V2.667a.667.667 0 0 0-.589-.663L13.333 2Zm-2.698 1.667a.314.314 0 0 1 .287.441l-.931 2.13a.316.316 0 0 0-.005.242l1.637 4.157a.631.631 0 0 1-.255.768l-2.427 1.501a.625.625 0 0 1-.67-.007l-2.318-1.506a.631.631 0 0 1-.254-.729l1.398-4.191a.316.316 0 0 0-.01-.226l-.924-2.14a.315.315 0 0 1 .287-.44h4.185ZM8.978 7.349h-.851L7.042 10.6l1.578 1.025 1.643-1.016-1.285-3.26Zm.216-2.423h-1.31l.354.82c.037.086.066.174.087.264h.425a1.58 1.58 0 0 1 .046-.162l.046-.117.352-.805Z" fill="#646A73" fill-rule="nonzero"/></g></svg>