<svg width="16" height="16" xmlns="http://www.w3.org/2000/svg"><path d="M5.333.333c1.243 0 2.287.85 2.583 2h2.835a2.668 2.668 0 1 1 2.582 3.334v4.666a2.667 2.667 0 0 1 0 5.334h-2.666a2.668 2.668 0 0 1-2.583-2H4a1.333 1.333 0 0 1-1.33-1.234l-.003-.1V5.667a2.667 2.667 0 1 1 0-5.334h2.666Zm8 11.334h-2.666a1.333 1.333 0 0 0-.1 2.663l.1.003h2.666a1.333 1.333 0 0 0 .1-2.663l-.1-.003Zm-2.582-8H7.916c-.296 1.15-1.34 2-2.583 2H4v6.665h4.084c.296-1.15 1.34-2 2.583-2H12V5.31a2.672 2.672 0 0 1-1.25-1.643Zm-5.418-2H2.667a1.333 1.333 0 0 0-.1 2.663l.1.003h2.666a1.333 1.333 0 0 0 .1-2.663l-.1-.003Zm8 0a1.333 1.333 0 1 0 0 2.666 1.333 1.333 0 0 0 0-2.666Z" fill="#646A73"/></svg>