<svg width="16" height="16" xmlns="http://www.w3.org/2000/svg"><path d="M8 9.333c.223 0 .464.011.72.033l.315.032.161.02.332.047.34.058.346.069.175.038.353.084c2.182.553 4.446 1.704 4.585 3.448l.006.172v.26c0 .917-.748 1.668-1.696 1.734l-.137.005h-11c-.967 0-1.758-.71-1.828-1.61l-.005-.13v-.26c0-1.786 2.203-2.977 4.391-3.567l.336-.085.168-.04.41-.087.402-.073c.53-.087 1.03-.136 1.464-.146L8 9.333Zm.005 1.333-.137.002c-.3.007-.64.036-.991.085l-.265.04-.363.065-.39.083c-2.246.514-3.765 1.489-3.855 2.316L2 13.334l-.001.208.002.078c.014.18.185.347.425.375L2.5 14h10.954l.09-.002c.243-.017.418-.172.45-.346l.006-.059.001-.207-.004-.118c-.094-1.186-3.235-2.542-5.828-2.6l-.164-.002Zm.121-10a4 4 0 0 1 3.975 4.455 4.014 4.014 0 0 1-3.52 3.52l-.2.018-.198.007A3.998 3.998 0 0 1 4.13 4.863l-.005-.196a4 4 0 0 1 3.8-3.995l.2-.005Zm0 1.334-.134.003c-1.37.068-2.46 1.166-2.53 2.498l-.003.135.004.163C5.53 6.185 6.65 7.282 8.001 7.332l.131.002.135-.004.168-.014a2.681 2.681 0 0 0 2.341-2.341 2.667 2.667 0 0 0-2.518-2.972L8.126 2Z" fill="#646A73"/></svg>